<?xml version="1.0"?>
<svg xmlns="http://www.w3.org/2000/svg" id="Capa_1" enable-background="new 0 0 512.046 512.046" height="512px" viewBox="0 0 512.046 512.046" width="512px"><g><g><path d="m395.32 181.387-108.619 23.753 53.109-185.98c4.614-16.164-16.999-26.519-26.69-12.752l-211.861 301c-7.966 11.318 2.418 26.507 15.852 23.199l96.784-23.826-52.936 186.158c-4.561 16.04 16.673 26.263 26.478 13.036l223.139-301c8.234-11.11-1.749-26.54-15.256-23.588z" data-original="#000000" class="active-path" data-old_color="#000000" fill="#FFFFFF"/><path d="m385.636 422.043-35.999-.6 19.12-37.603c3.755-7.385.813-16.415-6.572-20.169-7.386-3.756-16.415-.813-20.17 6.572l-30 59c-6.103 11.965 1.884 19.807 13.387 21.801l35.914.599-19.345 38.691c-3.705 7.41-.702 16.419 6.708 20.125 7.424 3.712 16.426.687 20.124-6.708l30-60c4.927-9.858-2.203-21.546-13.167-21.708z" data-original="#000000" class="active-path" data-old_color="#000000" fill="#FFFFFF"/><path d="m152.094 1.625c-7.41-3.704-16.42-.701-20.125 6.708l-30 60c-4.879 9.759 2.079 21.708 13.504 21.708h35.642l-19.146 38.292c-3.705 7.41-.701 16.419 6.708 20.125 7.424 3.712 16.427.687 20.125-6.708l30-60c4.991-9.983-2.35-21.708-13.417-21.708h-35.729l19.146-38.292c3.705-7.41.701-16.42-6.708-20.125z" data-original="#000000" class="active-path" data-old_color="#000000" fill="#FFFFFF"/></g></g> </svg>
