<?xml version="1.0"?>
<svg xmlns="http://www.w3.org/2000/svg" id="Layer_1" enable-background="new 0 0 512 512" height="512px" viewBox="0 0 512 512" width="512px" class="hovered-paths"><g><g><path d="m166 254.011v-.005-.011-.005c0-72.563 51.533-133.088 120-146.986-9.693-1.968-19.726-3.003-30-3.003-82.843 0-150 67.152-150 149.989v.005.011.005c0 82.837 67.157 149.989 150 149.989 10.274 0 20.307-1.036 30-3.003-68.467-13.898-120-74.423-120-146.986z" fill="#cee1f2" data-original="#CEE1F2" class="" data-old_color="#cee1f2" style="fill:#5C636A"/><path d="m256 424c-93.738 0-170-76.257-170-169.989 0-93.754 76.262-170.011 170-170.011s170 76.257 170 169.989v.022c0 93.732-76.262 169.989-170 169.989zm0-300c-71.683 0-130 58.313-130 129.989 0 71.699 58.317 130.011 130 130.011s130-58.313 130-129.989v-.017c0-71.681-58.317-129.994-130-129.994zm-24-99c0 13.807 11.193 25 25 25s25-11.193 25-25-11.193-25-25-25-25 11.193-25 25zm0 462c0 13.807 11.193 25 25 25s25-11.193 25-25-11.193-25-25-25-25 11.193-25 25zm-207-206c13.807 0 25-11.193 25-25s-11.193-25-25-25-25 11.193-25 25 11.193 25 25 25zm462 0c13.807 0 25-11.193 25-25s-11.193-25-25-25-25 11.193-25 25 11.193 25 25 25zm-367-227c0 13.807 11.193 25 25 25s25-11.193 25-25-11.193-25-25-25-25 11.193-25 25zm-89 86c0 13.807 11.193 25 25 25s25-11.193 25-25-11.193-25-25-25-25 11.193-25 25zm0 232c0 13.807 11.193 25 25 25s25-11.193 25-25-11.193-25-25-25-25 11.193-25 25zm89 87c0 13.807 11.193 25 25 25s25-11.193 25-25-11.193-25-25-25-25 11.193-25 25zm311-87c0 13.807 11.193 25 25 25s25-11.193 25-25-11.193-25-25-25-25 11.193-25 25zm-88 86c0 13.807 11.193 25 25 25s25-11.193 25-25-11.193-25-25-25-25 11.193-25 25z" fill="#0023c4" data-original="#0023C4" class="" style="fill:#FFFFFF" data-old_color="#0023c4"/><path d="m368 29c13.807 0 25 11.193 25 25s-11.193 25-25 25-25-11.193-25-25 11.193-25 25-25zm63 111c0 13.807 11.193 25 25 25s25-11.193 25-25-11.193-25-25-25-25 11.193-25 25z" fill="#ff5cf3" data-original="#FF5CF3" class="hovered-path active-path" data-old_color="#ff5cf3" style="fill:#FFFFFF"/></g></g> </svg>
